<svg id="visual" viewBox="0 0 900 600" width="900" height="600" xmlns="http://www.w3.org/2000/svg" xmlns:xlink="http://www.w3.org/1999/xlink" version="1.1"><path d="M0 49L13.7 55C27.3 61 54.7 73 82 80C109.3 87 136.7 89 163.8 88C191 87 218 83 245.2 78C272.3 73 299.7 67 327 68C354.3 69 381.7 77 409 75C436.3 73 463.7 61 491 54C518.3 47 545.7 45 573 53C600.3 61 627.7 79 654.8 83C682 87 709 77 736.2 67C763.3 57 790.7 47 818 53C845.3 59 872.7 81 886.3 92L900 103L900 0L886.3 0C872.7 0 845.3 0 818 0C790.7 0 763.3 0 736.2 0C709 0 682 0 654.8 0C627.7 0 600.3 0 573 0C545.7 0 518.3 0 491 0C463.7 0 436.3 0 409 0C381.7 0 354.3 0 327 0C299.7 0 272.3 0 245.2 0C218 0 191 0 163.8 0C136.7 0 109.3 0 82 0C54.7 0 27.3 0 13.7 0L0 0Z" fill="#373737"></path><path d="M0 91L13.7 97C27.3 103 54.7 115 82 132C109.3 149 136.7 171 163.8 175C191 179 218 165 245.2 150C272.3 135 299.7 119 327 116C354.3 113 381.7 123 409 132C436.3 141 463.7 149 491 149C518.3 149 545.7 141 573 146C600.3 151 627.7 169 654.8 169C682 169 709 151 736.2 133C763.3 115 790.7 97 818 106C845.3 115 872.7 151 886.3 169L900 187L900 101L886.3 90C872.7 79 845.3 57 818 51C790.7 45 763.3 55 736.2 65C709 75 682 85 654.8 81C627.7 77 600.3 59 573 51C545.7 43 518.3 45 491 52C463.7 59 436.3 71 409 73C381.7 75 354.3 67 327 66C299.7 65 272.3 71 245.2 76C218 81 191 85 163.8 86C136.7 87 109.3 85 82 78C54.7 71 27.3 59 13.7 53L0 47Z" fill="#252525"></path><path d="M0 289L13.7 304C27.3 319 54.7 349 82 348C109.3 347 136.7 315 163.8 303C191 291 218 299 245.2 314C272.3 329 299.7 351 327 353C354.3 355 381.7 337 409 326C436.3 315 463.7 311 491 323C518.3 335 545.7 363 573 363C600.3 363 627.7 335 654.8 333C682 331 709 355 736.2 358C763.3 361 790.7 343 818 331C845.3 319 872.7 313 886.3 310L900 307L900 185L886.3 167C872.7 149 845.3 113 818 104C790.7 95 763.3 113 736.2 131C709 149 682 167 654.8 167C627.7 167 600.3 149 573 144C545.7 139 518.3 147 491 147C463.7 147 436.3 139 409 130C381.7 121 354.3 111 327 114C299.7 117 272.3 133 245.2 148C218 163 191 177 163.8 173C136.7 169 109.3 147 82 130C54.7 113 27.3 101 13.7 95L0 89Z" fill="#141414"></path><path d="M0 541L13.7 533C27.3 525 54.7 509 82 501C109.3 493 136.7 493 163.8 498C191 503 218 513 245.2 511C272.3 509 299.7 495 327 499C354.3 503 381.7 525 409 536C436.3 547 463.7 547 491 537C518.3 527 545.7 507 573 508C600.3 509 627.7 531 654.8 539C682 547 709 541 736.2 528C763.3 515 790.7 495 818 484C845.3 473 872.7 471 886.3 470L900 469L900 305L886.3 308C872.7 311 845.3 317 818 329C790.7 341 763.3 359 736.2 356C709 353 682 329 654.8 331C627.7 333 600.3 361 573 361C545.7 361 518.3 333 491 321C463.7 309 436.3 313 409 324C381.7 335 354.3 353 327 351C299.7 349 272.3 327 245.2 312C218 297 191 289 163.8 301C136.7 313 109.3 345 82 346C54.7 347 27.3 317 13.7 302L0 287Z" fill="#121212"></path><path d="M0 601L13.7 601C27.3 601 54.7 601 82 601C109.3 601 136.7 601 163.8 601C191 601 218 601 245.2 601C272.3 601 299.7 601 327 601C354.3 601 381.7 601 409 601C436.3 601 463.7 601 491 601C518.3 601 545.7 601 573 601C600.3 601 627.7 601 654.8 601C682 601 709 601 736.2 601C763.3 601 790.7 601 818 601C845.3 601 872.7 601 886.3 601L900 601L900 467L886.3 468C872.7 469 845.3 471 818 482C790.7 493 763.3 513 736.2 526C709 539 682 545 654.8 537C627.7 529 600.3 507 573 506C545.7 505 518.3 525 491 535C463.7 545 436.3 545 409 534C381.7 523 354.3 501 327 497C299.7 493 272.3 507 245.2 509C218 511 191 501 163.8 496C136.7 491 109.3 491 82 499C54.7 507 27.3 523 13.7 531L0 539Z" fill="#101010"></path></svg>