<svg id="visual" viewBox="0 0 900 450" width="900" height="450" xmlns="http://www.w3.org/2000/svg" xmlns:xlink="http://www.w3.org/1999/xlink" version="1.1"><path d="M0 262L21.5 264.3C43 266.7 86 271.3 128.8 261.2C171.7 251 214.3 226 257.2 223.3C300 220.7 343 240.3 385.8 248.8C428.7 257.3 471.3 254.7 514.2 254.8C557 255 600 258 642.8 261.7C685.7 265.3 728.3 269.7 771.2 271.2C814 272.7 857 271.3 878.5 270.7L900 270L900 451L878.5 451C857 451 814 451 771.2 451C728.3 451 685.7 451 642.8 451C600 451 557 451 514.2 451C471.3 451 428.7 451 385.8 451C343 451 300 451 257.2 451C214.3 451 171.7 451 128.8 451C86 451 43 451 21.5 451L0 451Z" fill="#f7770f"></path><path d="M0 271L21.5 266.3C43 261.7 86 252.3 128.8 254.2C171.7 256 214.3 269 257.2 267.5C300 266 343 250 385.8 250C428.7 250 471.3 266 514.2 270.3C557 274.7 600 267.3 642.8 260.5C685.7 253.7 728.3 247.3 771.2 255.5C814 263.7 857 286.3 878.5 297.7L900 309L900 451L878.5 451C857 451 814 451 771.2 451C728.3 451 685.7 451 642.8 451C600 451 557 451 514.2 451C471.3 451 428.7 451 385.8 451C343 451 300 451 257.2 451C214.3 451 171.7 451 128.8 451C86 451 43 451 21.5 451L0 451Z" fill="#ff6259"></path><path d="M0 299L21.5 296.7C43 294.3 86 289.7 128.8 294.7C171.7 299.7 214.3 314.3 257.2 319.3C300 324.3 343 319.7 385.8 310.5C428.7 301.3 471.3 287.7 514.2 280.8C557 274 600 274 642.8 281.8C685.7 289.7 728.3 305.3 771.2 311.2C814 317 857 313 878.5 311L900 309L900 451L878.5 451C857 451 814 451 771.2 451C728.3 451 685.7 451 642.8 451C600 451 557 451 514.2 451C471.3 451 428.7 451 385.8 451C343 451 300 451 257.2 451C214.3 451 171.7 451 128.8 451C86 451 43 451 21.5 451L0 451Z" fill="#ff5f94"></path><path d="M0 363L21.5 356.3C43 349.7 86 336.3 128.8 335.3C171.7 334.3 214.3 345.7 257.2 349.8C300 354 343 351 385.8 349.7C428.7 348.3 471.3 348.7 514.2 346.5C557 344.3 600 339.7 642.8 337C685.7 334.3 728.3 333.7 771.2 331.5C814 329.3 857 325.7 878.5 323.8L900 322L900 451L878.5 451C857 451 814 451 771.2 451C728.3 451 685.7 451 642.8 451C600 451 557 451 514.2 451C471.3 451 428.7 451 385.8 451C343 451 300 451 257.2 451C214.3 451 171.7 451 128.8 451C86 451 43 451 21.5 451L0 451Z" fill="#f571c7"></path><path d="M0 364L21.5 367.7C43 371.3 86 378.7 128.8 377.3C171.7 376 214.3 366 257.2 358.3C300 350.7 343 345.3 385.8 340.5C428.7 335.7 471.3 331.3 514.2 330.8C557 330.3 600 333.7 642.8 337C685.7 340.3 728.3 343.7 771.2 347.5C814 351.3 857 355.7 878.5 357.8L900 360L900 451L878.5 451C857 451 814 451 771.2 451C728.3 451 685.7 451 642.8 451C600 451 557 451 514.2 451C471.3 451 428.7 451 385.8 451C343 451 300 451 257.2 451C214.3 451 171.7 451 128.8 451C86 451 43 451 21.5 451L0 451Z" fill="#c889eb"></path><path d="M0 372L21.5 372.3C43 372.7 86 373.3 128.8 378.7C171.7 384 214.3 394 257.2 400.5C300 407 343 410 385.8 411.2C428.7 412.3 471.3 411.7 514.2 408.5C557 405.3 600 399.7 642.8 399.3C685.7 399 728.3 404 771.2 399.5C814 395 857 381 878.5 374L900 367L900 451L878.5 451C857 451 814 451 771.2 451C728.3 451 685.7 451 642.8 451C600 451 557 451 514.2 451C471.3 451 428.7 451 385.8 451C343 451 300 451 257.2 451C214.3 451 171.7 451 128.8 451C86 451 43 451 21.5 451L0 451Z" fill="#8d9efb"></path><path d="M0 411L21.5 409.5C43 408 86 405 128.8 405.2C171.7 405.3 214.3 408.7 257.2 409.5C300 410.3 343 408.7 385.8 406C428.7 403.3 471.3 399.7 514.2 402.8C557 406 600 416 642.8 420.3C685.7 424.7 728.3 423.3 771.2 417.7C814 412 857 402 878.5 397L900 392L900 451L878.5 451C857 451 814 451 771.2 451C728.3 451 685.7 451 642.8 451C600 451 557 451 514.2 451C471.3 451 428.7 451 385.8 451C343 451 300 451 257.2 451C214.3 451 171.7 451 128.8 451C86 451 43 451 21.5 451L0 451Z" fill="#4facf7"></path></svg>