<svg id="visual" viewBox="0 0 900 600" width="900" height="600" xmlns="http://www.w3.org/2000/svg" xmlns:xlink="http://www.w3.org/1999/xlink" version="1.1"><path d="M0 121L13.7 120C27.3 119 54.7 117 82 114C109.3 111 136.7 107 163.8 99C191 91 218 79 245.2 70C272.3 61 299.7 55 327 55C354.3 55 381.7 61 409 66C436.3 71 463.7 75 491 82C518.3 89 545.7 99 573 96C600.3 93 627.7 77 654.8 69C682 61 709 61 736.2 63C763.3 65 790.7 69 818 69C845.3 69 872.7 65 886.3 63L900 61L900 0L886.3 0C872.7 0 845.3 0 818 0C790.7 0 763.3 0 736.2 0C709 0 682 0 654.8 0C627.7 0 600.3 0 573 0C545.7 0 518.3 0 491 0C463.7 0 436.3 0 409 0C381.7 0 354.3 0 327 0C299.7 0 272.3 0 245.2 0C218 0 191 0 163.8 0C136.7 0 109.3 0 82 0C54.7 0 27.3 0 13.7 0L0 0Z" fill="#6198ff"></path><path d="M0 211L13.7 205C27.3 199 54.7 187 82 187C109.3 187 136.7 199 163.8 196C191 193 218 175 245.2 163C272.3 151 299.7 145 327 156C354.3 167 381.7 195 409 204C436.3 213 463.7 203 491 208C518.3 213 545.7 233 573 226C600.3 219 627.7 185 654.8 171C682 157 709 163 736.2 172C763.3 181 790.7 193 818 197C845.3 201 872.7 197 886.3 195L900 193L900 59L886.3 61C872.7 63 845.3 67 818 67C790.7 67 763.3 63 736.2 61C709 59 682 59 654.8 67C627.7 75 600.3 91 573 94C545.7 97 518.3 87 491 80C463.7 73 436.3 69 409 64C381.7 59 354.3 53 327 53C299.7 53 272.3 59 245.2 68C218 77 191 89 163.8 97C136.7 105 109.3 109 82 112C54.7 115 27.3 117 13.7 118L0 119Z" fill="#3c80ff"></path><path d="M0 277L13.7 274C27.3 271 54.7 265 82 270C109.3 275 136.7 291 163.8 284C191 277 218 247 245.2 225C272.3 203 299.7 189 327 197C354.3 205 381.7 235 409 255C436.3 275 463.7 285 491 298C518.3 311 545.7 327 573 312C600.3 297 627.7 251 654.8 238C682 225 709 245 736.2 259C763.3 273 790.7 281 818 280C845.3 279 872.7 269 886.3 264L900 259L900 191L886.3 193C872.7 195 845.3 199 818 195C790.7 191 763.3 179 736.2 170C709 161 682 155 654.8 169C627.7 183 600.3 217 573 224C545.7 231 518.3 211 491 206C463.7 201 436.3 211 409 202C381.7 193 354.3 165 327 154C299.7 143 272.3 149 245.2 161C218 173 191 191 163.8 194C136.7 197 109.3 185 82 185C54.7 185 27.3 197 13.7 203L0 209Z" fill="#0066ff"></path><path d="M0 463L13.7 444C27.3 425 54.7 387 82 385C109.3 383 136.7 417 163.8 441C191 465 218 479 245.2 457C272.3 435 299.7 377 327 363C354.3 349 381.7 379 409 411C436.3 443 463.7 477 491 494C518.3 511 545.7 511 573 492C600.3 473 627.7 435 654.8 426C682 417 709 437 736.2 456C763.3 475 790.7 493 818 474C845.3 455 872.7 399 886.3 371L900 343L900 257L886.3 262C872.7 267 845.3 277 818 278C790.7 279 763.3 271 736.2 257C709 243 682 223 654.8 236C627.7 249 600.3 295 573 310C545.7 325 518.3 309 491 296C463.7 283 436.3 273 409 253C381.7 233 354.3 203 327 195C299.7 187 272.3 201 245.2 223C218 245 191 275 163.8 282C136.7 289 109.3 273 82 268C54.7 263 27.3 269 13.7 272L0 275Z" fill="#0059dd"></path><path d="M0 601L13.7 601C27.3 601 54.7 601 82 601C109.3 601 136.7 601 163.8 601C191 601 218 601 245.2 601C272.3 601 299.7 601 327 601C354.3 601 381.7 601 409 601C436.3 601 463.7 601 491 601C518.3 601 545.7 601 573 601C600.3 601 627.7 601 654.8 601C682 601 709 601 736.2 601C763.3 601 790.7 601 818 601C845.3 601 872.7 601 886.3 601L900 601L900 341L886.3 369C872.7 397 845.3 453 818 472C790.7 491 763.3 473 736.2 454C709 435 682 415 654.8 424C627.7 433 600.3 471 573 490C545.7 509 518.3 509 491 492C463.7 475 436.3 441 409 409C381.7 377 354.3 347 327 361C299.7 375 272.3 433 245.2 455C218 477 191 463 163.8 439C136.7 415 109.3 381 82 383C54.7 385 27.3 423 13.7 442L0 461Z" fill="#004cbb"></path></svg>